<?xml version="1.0" standalone="no"?>
<!DOCTYPE svg PUBLIC "-//W3C//DTD SVG 20010904//EN"
 "http://www.w3.org/TR/2001/REC-SVG-20010904/DTD/svg10.dtd">
<svg version="1.0" xmlns="http://www.w3.org/2000/svg"
 width="500.000000pt" height="500.000000pt" viewBox="0 0 500.000000 500.000000"
 preserveAspectRatio="xMidYMid meet">

<g transform="translate(0.000000,500.000000) scale(0.100000,-0.100000)"
fill="#000000" stroke="none">
<path d="M2385 3810 c-260 -41 -473 -198 -591 -435 -50 -102 -84 -240 -84
-345 1 -242 119 -483 305 -625 152 -116 296 -165 485 -165 181 0 308 39 455
140 91 64 122 97 41 45 -117 -75 -227 -106 -377 -106 -120 0 -210 20 -314 71
-324 157 -478 531 -360 873 35 101 80 172 170 263 90 91 173 143 293 182 63
20 99 25 197 26 161 1 283 -31 393 -105 60 -40 43 -17 -24 31 -74 55 -176 105
-265 130 -86 24 -238 33 -324 20z"/>
<path d="M2475 3696 c-33 -8 -78 -22 -100 -31 -22 -10 -42 -19 -45 -19 -11 -2
-100 -57 -100 -62 0 -2 17 4 38 14 70 35 134 47 257 47 131 0 186 -13 282 -66
48 -26 62 -29 148 -29 52 0 95 3 95 8 0 7 -65 52 -77 52 -3 0 -14 6 -22 14 -9
8 -56 29 -106 46 -74 26 -109 32 -200 36 -72 2 -131 -1 -170 -10z"/>
<path d="M2800 3196 c0 -120 3 -166 13 -174 9 -8 41 10 126 72 63 46 118 91
123 101 8 12 4 23 -13 41 l-23 25 22 6 c18 4 22 12 22 49 l0 44 -135 0 -135 0
0 -164z"/>
<path d="M3132 3223 c-10 -4 -10 -8 -1 -19 7 -8 10 -16 8 -18 -18 -15 -360
-266 -363 -266 -2 0 -36 43 -76 95 -64 85 -74 94 -89 82 -9 -8 -125 -103 -258
-212 -134 -108 -243 -199 -243 -200 0 -2 111 64 247 146 135 82 247 149 248
149 1 0 36 -45 79 -100 l76 -99 213 151 c116 82 218 153 226 156 8 3 19 -2 26
-11 10 -14 15 -5 33 57 12 41 22 79 22 85 0 11 -122 15 -148 4z"/>
<path d="M2928 2847 l-128 -91 0 -97 c0 -101 10 -128 40 -109 8 6 63 10 123
10 l107 0 0 184 c0 102 -3 187 -7 189 -5 2 -65 -37 -135 -86z"/>
<path d="M2815 2482 c-41 -25 -140 -62 -189 -70 -77 -13 -218 -5 -278 17 -32
11 -58 18 -58 15 0 -3 -9 0 -20 6 -11 6 -20 8 -20 5 0 -11 144 -73 206 -89 87
-23 242 -21 337 4 83 21 188 69 234 106 l28 23 -105 1 c-85 0 -111 -4 -135
-18z"/>
<path d="M380 1835 l0 -215 83 0 c101 0 152 14 189 50 28 28 28 29 28 163 0
131 -1 137 -26 166 -32 39 -77 51 -186 51 l-88 0 0 -215z m200 125 c17 -17 20
-33 20 -125 0 -128 -10 -145 -90 -145 l-50 0 0 145 0 145 50 0 c37 0 55 -5 70
-20z"/>
<path d="M861 2018 c-5 -18 -35 -112 -65 -208 -31 -97 -56 -179 -56 -183 0 -5
19 -7 42 -5 38 3 43 6 52 36 l9 32 82 0 82 0 9 -32 c9 -30 14 -33 53 -36 33
-2 42 0 39 10 -3 7 -33 104 -68 216 l-64 202 -52 0 c-50 0 -53 -1 -63 -32z
m94 -158 c14 -46 25 -89 25 -97 0 -9 -16 -13 -53 -13 -30 0 -56 2 -59 5 -4 5
21 103 48 184 7 21 12 11 39 -79z"/>
<path d="M1150 2015 l0 -35 60 0 60 0 0 -180 0 -180 40 0 40 0 0 180 0 180 60
0 60 0 0 35 0 35 -160 0 -160 0 0 -35z"/>
<path d="M1581 1848 c-36 -112 -66 -209 -69 -216 -3 -10 6 -12 39 -10 39 3 44
6 53 36 l9 32 82 0 82 0 9 -32 c9 -30 14 -33 52 -36 23 -2 42 1 42 5 0 5 -29
100 -65 212 -36 112 -65 206 -65 208 0 1 -24 3 -53 3 l-53 0 -63 -202z m150 2
c14 -49 24 -92 21 -95 -3 -3 -30 -5 -60 -5 l-54 0 6 30 c11 59 48 171 54 165
3 -3 18 -46 33 -95z"/>
<path d="M2115 1848 c-36 -112 -65 -209 -65 -216 0 -7 15 -12 39 -12 36 0 40
3 51 35 l12 36 81 -3 81 -3 10 -32 c8 -30 13 -33 46 -33 20 0 39 2 42 5 3 3
-25 99 -61 213 l-67 207 -51 3 -52 3 -66 -203z m149 9 c14 -51 26 -96 26 -100
0 -4 -27 -7 -61 -7 -45 0 -60 3 -57 13 3 6 16 51 29 100 13 48 26 87 30 87 3
0 18 -42 33 -93z"/>
<path d="M2480 1835 l0 -215 40 0 39 0 3 137 3 137 80 -134 c79 -132 82 -135
118 -138 l37 -3 0 216 0 216 -37 -3 -38 -3 -5 -130 -5 -130 -79 133 -78 132
-39 0 -39 0 0 -215z"/>
<path d="M2936 1847 c-37 -112 -66 -209 -66 -215 0 -7 16 -12 39 -12 36 0 40
3 51 35 l12 36 81 -3 81 -3 10 -32 c8 -31 12 -33 52 -33 24 0 44 1 44 3 0 1
-31 97 -68 212 l-68 210 -51 3 -52 3 -65 -204z m148 10 c14 -51 26 -96 26
-100 0 -4 -27 -7 -61 -7 -45 0 -60 3 -57 13 3 6 16 51 29 100 13 48 26 87 30
87 3 0 18 -42 33 -93z"/>
<path d="M3300 1835 l0 -215 145 0 145 0 0 35 0 35 -105 0 -105 0 0 180 0 180
-40 0 -40 0 0 -215z"/>
<path d="M3696 1915 c62 -131 64 -136 64 -215 l0 -80 40 0 40 0 0 85 c0 85 0
86 65 215 l65 130 -44 0 -43 0 -39 -85 c-22 -47 -42 -85 -45 -85 -3 0 -23 38
-44 85 l-38 85 -43 0 -43 0 65 -135z"/>
<path d="M4082 2033 c-54 -27 -76 -91 -50 -147 14 -32 35 -46 130 -86 84 -34
102 -57 72 -91 -34 -38 -134 -15 -134 32 0 16 -7 19 -40 19 -37 0 -40 -2 -40
-29 0 -116 225 -155 290 -49 23 38 25 66 8 102 -14 33 -43 51 -126 83 -80 30
-92 38 -92 68 0 33 23 47 72 43 36 -2 46 -8 63 -35 17 -27 26 -32 58 -33 36 0
37 1 31 28 -15 69 -77 112 -159 112 -27 0 -65 -8 -83 -17z"/>
<path d="M4400 1835 l0 -216 38 3 37 3 0 210 0 210 -37 3 -38 3 0 -216z"/>
<path d="M4599 2027 c-78 -53 -68 -150 21 -194 25 -13 68 -33 95 -45 81 -37
74 -98 -11 -98 -46 0 -84 25 -84 55 0 11 -11 15 -40 15 -35 0 -40 -3 -40 -22
0 -36 38 -88 75 -104 79 -33 197 -6 223 51 19 41 15 91 -10 120 -13 14 -58 40
-102 58 -91 37 -114 61 -90 95 30 44 134 18 134 -33 0 -11 11 -15 40 -15 35 0
40 3 40 23 0 35 -34 82 -73 100 -52 25 -136 22 -178 -6z"/>
<path d="M1740 1300 c0 -40 4 -70 10 -70 6 0 10 23 10 50 0 54 5 60 26 33 13
-17 15 -17 28 0 20 26 25 21 29 -35 3 -46 4 -43 5 20 2 76 -6 89 -28 47 -7
-14 -16 -25 -20 -25 -4 0 -13 11 -20 25 -25 47 -40 31 -40 -45z"/>
<path d="M1930 1364 c0 -20 35 -134 42 -134 7 0 28 65 28 90 0 26 19 -4 27
-44 12 -58 28 -54 43 11 7 32 15 64 17 71 3 6 1 12 -5 12 -6 0 -13 -18 -17
-40 -9 -56 -21 -57 -34 -4 -14 55 -32 54 -44 -4 -10 -50 -23 -47 -32 8 -4 22
-11 40 -16 40 -5 0 -9 -3 -9 -6z"/>
<path d="M2251 1356 c-16 -20 -5 -41 32 -57 44 -19 49 -49 8 -49 -17 0 -31 5
-31 10 0 6 -4 10 -10 10 -16 0 1 -29 21 -35 26 -8 56 2 63 22 8 20 -18 49 -50
57 -34 9 -33 46 1 46 13 0 28 -8 34 -17 5 -10 13 -15 17 -11 12 13 -18 38 -46
38 -15 0 -33 -6 -39 -14z"/>
<path d="M2421 1356 c-7 -8 -11 -36 -9 -63 3 -42 6 -49 32 -58 24 -8 31 -6 47
14 21 26 25 72 9 102 -13 23 -62 26 -79 5z m64 -51 c0 -47 -2 -50 -27 -53 -24
-3 -28 1 -33 31 -9 45 9 79 38 75 19 -3 22 -9 22 -53z"/>
<path d="M2592 1303 l-2 -73 45 0 c25 0 45 5 45 10 0 6 -18 10 -40 10 l-39 0
-4 63 -3 62 -2 -72z"/>
<path d="M2752 1313 c-2 -52 1 -64 17 -73 28 -14 38 -13 61 10 15 15 20 33 20
70 0 69 -18 63 -22 -7 -3 -55 -5 -58 -30 -61 -30 -4 -34 6 -41 83 -3 28 -4 21
-5 -22z"/>
<path d="M2937 1363 c20 -4 22 -12 26 -71 l3 -67 2 67 c2 64 3 67 30 71 15 2
2 4 -28 4 -30 0 -45 -2 -33 -4z"/>
<path d="M3090 1300 c0 -40 4 -70 10 -70 6 0 10 30 10 70 0 40 -4 70 -10 70
-6 0 -10 -30 -10 -70z"/>
<path d="M3190 1351 c-16 -30 -12 -76 9 -102 16 -20 23 -22 47 -14 26 9 29 16
32 58 2 27 -2 55 -9 63 -17 21 -66 18 -79 -5z m74 -22 c5 -14 6 -38 2 -53 -5
-22 -12 -27 -34 -24 -23 3 -27 8 -30 42 -2 21 -1 45 2 53 9 23 49 11 60 -18z"/>
<path d="M3360 1300 c0 -81 18 -95 22 -17 l3 52 28 -47 c41 -70 47 -69 45 14
-1 55 -3 61 -5 26 -2 -27 -7 -48 -11 -48 -4 0 -19 20 -34 45 -15 25 -32 45
-38 45 -6 0 -10 -29 -10 -70z"/>
<path d="M3544 1356 c-10 -26 3 -44 41 -61 21 -8 35 -20 33 -27 -6 -18 -46
-22 -64 -8 -10 9 -14 9 -14 1 0 -20 45 -34 69 -22 34 19 26 48 -20 71 -22 12
-39 26 -36 33 6 20 47 20 63 0 14 -17 15 -17 12 2 -4 26 -75 35 -84 11z"/>
</g>
</svg>
